/* XPM */
static char *_0e6b651489a478f973a9456da2ddf38aHsotcDvbdF2h71i[] = {
/* columns rows colors chars-per-pixel */
"64 64 145 2 ",
"   c #060302",
".  c #0E0A07",
"X  c #0A0A0C",
"o  c #170D0C",
"O  c #12110F",
"+  c #151313",
"@  c #1A1415",
"#  c #1C1817",
"$  c #161619",
"%  c #1B1C1B",
"&  c #21211F",
"*  c #171721",
"=  c #181621",
"-  c #1E1E24",
";  c #1E1C29",
":  c #201E29",
">  c #252525",
",  c #2B2726",
"<  c #242827",
"1  c #2A2927",
"2  c #2B2728",
"3  c #27282A",
"4  c #2C2C2B",
"5  c #2E302F",
"6  c #31312F",
"7  c #2A2732",
"8  c #2E2834",
"9  c #312B37",
"0  c #322E3C",
"q  c #323230",
"w  c #393937",
"e  c #3A3A38",
"r  c #4E2B31",
"t  c #533036",
"y  c #5B333A",
"u  c #643032",
"i  c #61363D",
"p  c #62393F",
"a  c #6F3B3D",
"s  c #743C3C",
"d  c #793F3E",
"f  c #61403B",
"g  c #363241",
"h  c #3B3645",
"j  c #464253",
"k  c #484153",
"l  c #6A4743",
"z  c #6B4844",
"x  c #704D49",
"c  c #7C5E54",
"v  c #4E4F63",
"b  c #55566A",
"n  c #58566B",
"m  c #595A6F",
"M  c #5D5F74",
"N  c #596478",
"B  c #874D4C",
"V  c #8C564A",
"C  c #8F5B4E",
"Z  c #8B674F",
"A  c #976155",
"S  c #996154",
"D  c #976E5A",
"F  c #8F6A62",
"G  c #936D64",
"H  c #A77866",
"J  c #A97B66",
"K  c #AC7D68",
"L  c #7D947D",
"P  c #80967F",
"I  c #81987E",
"U  c #B0826A",
"Y  c #5E6A80",
"T  c #626D83",
"R  c #6B768E",
"E  c #637F8C",
"W  c #6A788F",
"Q  c #6B7791",
"!  c #6C7991",
"~  c #7F9781",
"^  c #6A8797",
"/  c #6C8C9B",
"(  c #72929D",
")  c #7291A0",
"_  c #819781",
"`  c #859B85",
"'  c #879D88",
"]  c #899C89",
"[  c #8EA18D",
"{  c #90A38F",
"}  c #8EA390",
"|  c #93A692",
" . c #96A995",
".. c #97B3A5",
"X. c #98B2A5",
"o. c #9BB9AF",
"O. c #A2B3A1",
"+. c #BFC2AF",
"@. c #A5C5BD",
"#. c #C1C6B2",
"$. c #C5CAB6",
"%. c #ADCDC1",
"&. c #B6D3C4",
"*. c #B8D4C5",
"=. c #D4D7C2",
"-. c #D5DAC4",
";. c #D8DBC6",
":. c #D6DDC8",
">. c #D1D2D2",
",. c #DDDDDD",
"<. c #DFE7D2",
"1. c #DFE8D3",
"2. c #DEE0DF",
"3. c #E1E6D2",
"4. c #E3EAD5",
"5. c #E1E2DF",
"6. c #E7EFD8",
"7. c #E9EED8",
"8. c #ECF2DB",
"9. c #DFDEE0",
"0. c #E0DEE1",
"q. c #DFE1E0",
"w. c #E2E3E2",
"e. c #E6E8E6",
"r. c #E8E9E7",
"t. c #E7E9E8",
"y. c #EAEBEA",
"u. c #EEF3EF",
"i. c #EEF1EE",
"p. c #EEF0ED",
"a. c #F2F3EE",
"s. c #F0F2EF",
"d. c #F1F3F0",
"f. c #F2F4F1",
"g. c #F3F5F2",
"h. c #F2F4F3",
"j. c #F4F6F3",
"k. c #F3F4F2",
"l. c #F7F9F6",
"z. c #F8FAF7",
"x. c #F8FAF7",
"c. c #F7F9F8",
"v. c #F7F9F8",
"b. c white",
"n. c #FDFDFD",
/* pixels */
"P P P P P P P P P P P P P P P P P P P P P P P P P P L P P P P P P P P _ P L L L ] { [ [ [ [ ] _ _ P P P P P P P P P P P P P P P ",
"P P P P P P P P P P P P P P P P P P P P P P P P P P P P P P P P P _ P L L ] [  .f.e.2.q.2.e.y.' L _ P P P P P P _ P P P P P _ P ",
"P P P P P P P P P P P P P P P P P P P P P P P P P _ P P P _ _ P _ L L `  .j.w.e.,.6 % > % > y.[ L _ P P L P P P P P P P P P P P ",
"P P P P P P P P P P P P P P P P P P P P P P P P P P P L P P P P L `  .f.y.,.q % 4 $.=.;.+.% w.[ L _ P P L P P P L P _ P L P P P ",
"P P P P P P P P P P P P P P P P P P P P P P P P P L P P P P _ L { f.y.,.4 1 $.=.=.7.7.8.:.& w.[ L ~ P _ _ P P _ _ P P P P P P P ",
"P P P P P P P P P P P P P P P P P P P P P P P P P P P P P _ L [ l.w.4 1 $.;.7.6.7.3.&.&.X.5 e.[ L _ P L L L L L L P _ P P P P P ",
"P P P P P P P P P P P P P P P P P P P P P P P P P P _ L _ L [ z.,.e #.;.7.6.1.&.%.%.%.o.< ,.j.' L L L ' [ [ [ [ ' _ P L P P P P ",
"P P P P P P P P P P P P P P P P P P P P P P P P P P P P L [ z.9.w $.8.8.<.&.%.@.( / ( E % e.| L L `  .f.e.w.w.y.p.' L _ L P _ P ",
"P P P P P P P P P P P P P P P P P P P P P P P P P P P L { v.,.w $.8.4.<.*.@.( / ^ R ! Y % e.| L | s.y.q., + @ > y.[ L _ P P P P ",
"P P P P P P P P P P P P P P P P P P P P P P P P P _ L ` f.w.e $.8.<.*.%.@.( ^ ! ! R ! T - ,.p.[ p.e.> @ t p u + w.[ L P P P P P ",
"P P P P P P P P P P P P P P P P P P P P P P P P _ P L  .y.4 #.8.4.*.@.( / ^ ! R Q R R ! N 1 r.O.r.> r y B H p + w.[ L P P P P P ",
"P P P P P P P P P P P P P P P P P P P P P P P P _ L ` f.,.1 ;.8.<.%.( ^ ! ! ! Q R R R ! T % ,.b.,.+ d A H B t , e.[ L _ P L P P ",
"P P P P P P P P P P P P P P P P P P P P P P P P P L  .y.4 $.7.<.*.@./ ! Q R R R R R R R R v 4 >.>   C K A y @ 2.f.' L ~ P P P P ",
"P P P P P P P P P P P P P P P P P P P P P P P P L ] f.,.1 ;.6.&.@.( ^ ! R R R R R R ! R M b 7 $ = . D C d r > y. .L P P P P P P ",
"P P P P P P P P P P P P P P P P P P P P P P P P L [ e.q $.7.1.%.( ^ ! ! Q R R R ! Q R M n 0 X ; 0 X .   + , e.d.` L _ ~ _ _ _ P ",
"P P P P P P P P P P P P P P P P P P P P P P P P L  .e.% =.6.&.@./ ! R Q R R R Q R M m b 0 X : g j 0 = > ,.y.p.| L L L L L L L P ",
"P P P P P P P P P P P P P P P P P P P P P P _ L ' f.,.4 =.8.%.( ^ ! R R R R R R M b h 9 X : g j g ; $ >.b.O.[ L L ' [ [ [ [ ' _ ",
"P P P P P P P P P P P P P P P P P P P P P P _ L [ e.6 $.7.3.%./ R R R ! R W R M b h 8 X : g j g : X 7 4 ,.r.p.| | j.e.5.w.y.y.] ",
"P P P P P P P P P P P P P P P P P P P P P P _ L [ 5.% -.7.&.%.( ! ! R R R ! R m h 8 X : g j g : X 0 b v % 1 ,.e.e.,.5 & % > e.[ ",
"P P P P P P P P P P P P P P P P P P P P P P _ L [ w.> -.8.&.o.E Y T ! ! R R M b 9 X : g k g : X 0 n M R T N - % % < X.:.+.% 2.[ ",
"P P P P P P P P P P P P P P P P P P P P P P _ L [ w.% +.:...< % % - N T R M n 0 X : g k g : X 9 b M R R ! ! T Y E o.&.8.;.> q.[ ",
"P P P P P P P P P P P P P P P P P P P P P P _ L [ y.> % & 5 ,.e.e.0.3 % v b 0 X : g j g : X 8 h m R ! R R R ! ! ) %.&.7.=.% 2.[ ",
"P P P P P P P P P P P P P P P P P P P P P P _ L ' p.y.w.w.e.j.| | f.y.,.4 7 X : g j g : X 8 h b M R R R R R Q Q / %.3.7.$.6 e.{ ",
"P P P P P P P P P P P P P P P P P P P P P P _ P _ ' [ [ [ { ' L L ` | b.>.$ ; g j g : X 9 h b M R R R R R R ! ^ ( %.8.=.4 ,.f.] ",
"P P P P P P P P P P P P P P P P P P P P P P P P P L L L L L L ~ _ L | y.> * 0 j g : X 0 b m M R Q R R R Q R ! / @.&.6.=.% e. .L ",
"P P P P P P P P P P P P P P P P P P P P P P P P L _ _ _ _ _ _ _ L [ z.,.O   X 0 ; X 0 n M R R R R R R Q ! ! ^ ( %.1.7.$.q e.[ L ",
"P P P P P P P P P P P P P P P P P P P P P P P P L P P P P P _ L [ l.w.2 x c   = $ 7 b M R ! Q R R R W R ! ^ ( @.&.6.;.1 ,.j.] P ",
"P P P P P P P P P P P P P P P P P P P P P P P P _ P P P P _ L [ l.w., l F x O > >.4 v R R R R W R R R Q ! / @.*.<.7.$.4 y. .L P ",
"P P P P P P P P P P P P P P P P P P P P P P P P P P P P _ L [ l.w., l G l 2 ,.y.b.,.% T ! R R W Q ! ! ! ^ ( %.3.8.;.1 ,.f.` L _ ",
"P P P P P P P P P P P P P P P P P P P P P P P P P P P _ L [ l.w., l G l , w.z.| | y.1 N ! R R R R ! ^ / ( @.&.4.8.#.4 y. .L P P ",
"P P P P P P P P P P P P P P P P P P P P P P P P P P _ L [ l.w., l G l , w.l.[ L ` f.0.- T ! R ! ! ^ ( @.%.&.<.8.$.e w.f.` L ~ P ",
"P P P P P P P P P P P P P P P P P P P P P P P P L _ L [ l.w.2 l G l , w.l.[ L _ L | e.% Y ! R ^ / ( @.*.3.4.8.$.w ,.l.} L P P P ",
"P P P P P P P P P P P P P P P P P P L P P L P L _ L [ l.w., l G l , w.l.[ L _ ~ L | e.% E ) / ( @.%.&.<.8.8.$.w 9.z.[ L P P P P ",
"P P P P P P P P P P P P P P P P P _ P P P P P _ L [ l.w., l G l 2 w.l.[ L _ _ L ' j.,.< o.%.%.%.&.1.6.7.;.#.e ,.z.[ L _ L _ P P ",
"P P P P P P P P P P P P P P P P L P P P P P _ L [ l.w., l G l , 5.z.[ L _ P _ L [ e.5 X.&.&.3.7.6.7.;.$.1 4 w.v.[ L _ P P P P P ",
"P P P P P P P P P P P P P P P P P P P L P _ L [ l.w., l G l , w.l.[ L _ P P _ L [ w.& :.8.7.7.=.=.$.1 4 ,.y.f.| L _ P P P P P L ",
"P P P P P P P P P P P P P P P P P P P P _ L [ l.w., l G l , w.l.[ L _ P P P _ L [ w.% +.-.-.$.4 % q ,.y.f. .` L P L P P P P P P ",
"P P P P P P P P P P P P P P P P L P P _ L [ l.w., l G l , w.l.[ L _ P P P P _ L [ y.> % > % 6 ,.e.e.f. .` L L P P _ _ P P P _ P ",
"P P P P P P P P P P P P P P P P P P _ L [ l.w.2 l G l , w.l.[ L _ P L P P P _ L ' p.y.w.w.5.e.f. .[ ] L L P _ P P P P P P _ P P ",
"P P P P P P P P P P P P P P P P L _ L [ l.5.2 l G l , w.l.[ L _ L P P P _ L P P _ ' [ [ [ [ { ' L L P P _ P P P P P P L P P P P ",
"P P P P P P P P P P L P P L P L _ L [ l.w., l G l , w.l.[ L _ L P P P P P P P P P L L L L L L L P P P P P P P P P P P P P P P P ",
"P P P P P P P P P _ P P P P P _ L [ l.w., l G l , w.l.[ L _ P P P P P P P P P P _ _ _ _ _ _ _ _ P P P P P P P P P P P P P P P P ",
"P P P P P P P P L P P P P P _ L [ l.w., l G l , w.l.[ L _ P P L P P P P P P P P P P P P P P P P P P P P P P P P P P P P P P P P ",
"P P P P P P P P P P P L P _ L [ l.w., l G l , w.l.[ L _ P P P P P P P P P P P P P P P P P P P P P P P P P P P P P P P P P P P P ",
"P P P P P P P P P P P P _ L [ l.w., l G l , w.l.[ L _ P L P P P P P P P P P P P P P P P P P P P P P P P P P P P P P P P P P P P ",
"P P P P P P P P L P P _ L [ l.w., l G l , w.l.[ L _ P P P P P L P P P P P P P P P P P P P P P P P P P P P P P P P P P P P P P P ",
"P P P P P P P P P P _ L [ l.w.2 l G l , w.l.[ L _ P P P P P _ P P P P P P P P P P P P P P P P P P P P P P P P P P P P P P P P P ",
"P P P P P P P P L _ L [ l.5.2 l G l , w.l.[ L _ L P L P P L P P P P P P P P P P P P P P P P P P P P P P P P P P P P P P P P P P ",
"P P P P P P P P _ L [ l.w., z G l , w.l.[ L _ L P P P P P P P P P P P P P P P P P P P P P P P P P P P P P P P P P P P P P P P P ",
"P P L P P P P I L [ l.w., l G z , w.l.[ L _ P P P P P P P P P P P P P P P P P P P P P P P P P P P P P P P P P P P P P P P P P P ",
"P P P P _ _ _ L [ l.w., l G l , w.l.[ L _ P P L P P P P P P P P P P P P P P P P P P P P P P P P P P P P P P P P P P P P P P P P ",
"P L P P L L L [ l.w., l G l , w.l.[ L _ P P P P P P P P P P P P P P P P P P P P P P P P P P P P P P P P P P P P P P P P P P P P ",
"P P P L ] [ | l.w.2 l G l , w.l.[ L _ P L P P P P P P P P P P P P P P P P P P P P P P P P P P P P P P P P P P P P P P P P P P P ",
"P P ~ | f.e.r.,.> f G l , w.l.[ L _ P P P P P L P P P P P P P P P P P P P P P P P P P P P P P P P P P P P P P P P P P P P P P P ",
"_ L ` d.w.> + +   o f 2 w.l.[ L _ P P P P P _ P P P P P P P P P P P P P P P P P P P P P P P P P P P P P P P P P P P P P P P P P ",
"P L  .y.> r y i a   > w.l.[ L _ L P L P P L P P P P P P P P P P P P P P P P P P P P P P P P P P P P P P P P P P P P P P P P P P ",
"L ' f.,.@ d S J i + ,.l.[ L _ P P P P P P P P P P P P P P P P P P P P P P P P P P P P P P P P P P P P P P P P P P P P P P P P P ",
"L [ t.2 s S J S y + r.| L _ P P P P P P P P P P P P P P P P P P P P P P P P P P P P P P P P P P P P P P P P P P P P P P P P P P ",
"L [ w.@ V U S d r > e.[ L _ P P P P P P P P P P P P P P P P P P P P P P P P P P P P P P P P P P P P P P P P P P P P P P P P P P ",
"L [ w.# Z V s @ > w.f.] L _ P P P P P P P P P P P P P P P P P P P P P P P P P P P P P P P P P P P P P P P P P P P P P P P P P P ",
"L [ y.> # @ 2 ,.y.d.| L P P P P P P P P P P P P P P P P P P P P P P P P P P P P P P P P P P P P P P P P P P P P P P P P P P P P ",
"L ' s.y.w.w.e.f. .` ~ P P P L P P P P P P P P P P P P P P P P P P P P P P P P P P P P P P P P P P P P P P P P P P P P P P P P P ",
"P L ' [ [ [ [ ' L L P P L P P P P P P P P P P P P P P P P P P P P P P P P P P P P P P P P P P P P P P P P P P P P P P P P P P P ",
"_ L L L L L L L P _ P P P P P _ P P P P P P P P P P P P P P P P P P P P P P P P P P P P P P P P P P P P P P P P P P P P P P P P "
};
