/* XPM */
static char *_7ab83239d4f4e43cfc18f6af5c7c3cfNJ99LL9LpIB2QVCK[] = {
/* columns rows colors chars-per-pixel */
"64 64 229 2 ",
"   c #06090B",
".  c #080D13",
"X  c #120F11",
"o  c #0C151B",
"O  c #0C1317",
"+  c #121B1D",
"@  c #141718",
"#  c #1E100D",
"$  c #251A17",
"%  c #1F201A",
"&  c #0D1A22",
"*  c #0D1C29",
"=  c #131D23",
"-  c #131F2A",
";  c #1C1F26",
":  c #152026",
">  c #1B2225",
",  c #15222C",
"<  c #19252D",
"1  c #1F292B",
"2  c #162533",
"3  c #1A2631",
"4  c #172936",
"5  c #1C2A34",
"6  c #1C2C3B",
"7  c #162B3A",
"8  c #1E303F",
"9  c #23262A",
"0  c #262A2C",
"q  c #2B2B2D",
"w  c #252524",
"e  c #372927",
"r  c #34342E",
"t  c #35332B",
"y  c #222D35",
"u  c #2D2E31",
"i  c #212E3A",
"p  c #232730",
"a  c #312E32",
"s  c #2E3234",
"d  c #24313C",
"f  c #29343D",
"g  c #273335",
"h  c #343335",
"j  c #3A3535",
"k  c #353936",
"l  c #3B3A36",
"z  c #34363A",
"x  c #3A363A",
"c  c #35393C",
"v  c #3B3B3C",
"b  c #30211E",
"n  c #423D3C",
"m  c #4C3B3A",
"M  c #443836",
"N  c #523E39",
"B  c #43312E",
"V  c #3E403C",
"C  c #42423D",
"Z  c #4C423E",
"A  c #49473D",
"S  c #52443F",
"D  c #1E3342",
"F  c #243442",
"G  c #2A3642",
"H  c #2C3A44",
"J  c #2C3B4A",
"K  c #273947",
"L  c #333C43",
"P  c #3C3D42",
"I  c #313E4A",
"U  c #363B45",
"Y  c #423E42",
"T  c #3D4244",
"R  c #35414C",
"E  c #3B434A",
"W  c #354046",
"Q  c #3F4952",
"!  c #434344",
"~  c #4A4644",
"^  c #454845",
"/  c #4C4A44",
"(  c #44454A",
")  c #454A4B",
"_  c #4A4B4C",
"`  c #4B464A",
"'  c #534643",
"]  c #524C45",
"[  c #524D49",
"{  c #5B4D4B",
"}  c #5A4A46",
"|  c #4D514D",
" . c #54524C",
".. c #5C544C",
"X. c #515147",
"o. c #4C4C51",
"O. c #434952",
"+. c #544C52",
"@. c #5E4E50",
"#. c #4D5154",
"$. c #4A5258",
"%. c #535354",
"&. c #5C5452",
"*. c #5D5A53",
"=. c #54555A",
"-. c #5B545A",
";. c #57585D",
":. c #5B5A5C",
">. c #65534D",
",. c #635654",
"<. c #645B54",
"1. c #6B5B55",
"2. c #655C5A",
"3. c #6A5E5C",
"4. c #685556",
"5. c #735D5A",
"6. c #634E4F",
"7. c #5F605D",
"8. c #646056",
"9. c #64625B",
"0. c #6B625B",
"q. c #6B635A",
"w. c #74635D",
"e. c #716258",
"r. c #5B5D61",
"t. c #555B62",
"y. c #645A62",
"u. c #6A5D64",
"i. c #735E63",
"p. c #596165",
"a. c #636464",
"s. c #6D6362",
"d. c #6D6A64",
"f. c #6C636A",
"g. c #69696A",
"h. c #736564",
"j. c #7B6563",
"k. c #726A64",
"l. c #7C6B64",
"z. c #72666B",
"x. c #746B6B",
"c. c #7C6D6A",
"v. c #7A6669",
"b. c #7A716D",
"n. c #73726B",
"m. c #756C73",
"M. c #7A6E73",
"N. c #736771",
"B. c #757374",
"V. c #7B7274",
"C. c #7C747A",
"Z. c #7C7978",
"A. c #6C6F72",
"S. c #836D6A",
"D. c #826A66",
"F. c #84726D",
"G. c #89706C",
"H. c #837475",
"J. c #8A7573",
"K. c #8B7A75",
"L. c #83757A",
"P. c #847B7C",
"I. c #8B7C7C",
"U. c #827B76",
"Y. c #937E7A",
"T. c #927A76",
"R. c #826F72",
"E. c #8C827C",
"W. c #878078",
"Q. c #94827D",
"!. c #99817D",
"~. c #7C7B81",
"^. c #787580",
"/. c #837B82",
"(. c #8A7D82",
"). c #827B85",
"_. c #858286",
"`. c #8C8284",
"'. c #85848B",
"]. c #8C848B",
"[. c #8B898C",
"{. c #8D8985",
"}. c #948484",
"|. c #9B8684",
" X c #9D8A85",
".X c #91858A",
"XX c #948B8D",
"oX c #9B8B8A",
"OX c #928A84",
"+X c #9A928C",
"@X c #8C8B94",
"#X c #8C8995",
"$X c #958C94",
"%X c #9A8E93",
"&X c #948E9A",
"*X c #949295",
"=X c #9C9393",
"-X c #95939B",
";X c #9A939C",
":X c #9D9A9D",
">X c #9A9A9B",
",X c #A28E8B",
"<X c #A28985",
"1X c #A5918F",
"2X c #A9918F",
"3X c #A49393",
"4X c #A99693",
"5X c #A3969B",
"6X c #A59A9B",
"7X c #AC9C9A",
"8X c #B29C98",
"9X c #ABA49D",
"0X c #9B96A1",
"qX c #9897A1",
"wX c #A59BA3",
"eX c #AEA3A5",
"rX c #A7A2A8",
"tX c #B5A9A8",
"yX c #BCB5AD",
"uX c #B5ACB1",
"iX c #B8B4B4",
"pX c #AEADB2",
"aX c #C3BAB7",
"sX c #BEC0BF",
"dX c #C9C1BF",
"fX c #BFBEC0",
"gX c #C3BEC4",
"hX c #CBC7C7",
"jX c #D3CFCE",
/* pixels */
";.;.=.) P P P T P v z z z v z z u z z c ! ! n l C %.:.%.o.( U c ^ / ) %.:.p.=._ ^ j q t m ] ....>.8.w.X.C / %.%._ ! ! ^ ! Y C l ",
";.;.=._ T P ! ! P P v v P P P P c s u k ! ^ ~ ^ %.*.%._ ! ! t.~.[.[.[.'.[.[.'._.Z.B.g.&.C M S <.k.<.8.*.] / ^ | _ ! ^ ) ^ ^ ! C ",
";.;.=._ ! T ( ( P P P P P P P P P s z T ! ! ^ ^ / *.+.( g.-XrX>X*X*X@X[.'.'.'.'.~._.[.[.U.0.{ ' <.0.n.*.C ! ) | ^ T ! ) ^ ^ ^ C ",
"=.;.=._ ( ! ( ( P P P v v v P P c k T ^ ! ! _ _ [ -.A.*XpXpX-X*X@X*X-X#X@X@X#X[._.~./.[.*XOXV.0...8.k.] l /  . .^ v v ^ ! ! ! n ",
"=.;.=.o.( ( ( ) P P P v c z v c P T T V T _ %. .! P.iXfXpX@X'.-X[.@X@X'.'.@X@X'.-X-X@X[.XX.X`.P.b... .` / _ / _ ( v l v l v C v ",
"=.;.=._ ( ! ( ( ( ( P P c c P P T T c V _ | ^ ^ B.iXhX:X'.:XrX-X0XqX-X#X#X#X#X#X-X;X0X:X;X$X`.P.W.k.8./ C ) ^ ! ! l l v l v n v ",
";.;.=._ ! ! ( ( ( ! P P v v P T c T v T #.^ ^ A.jXiX>X[.-X-X@X'.#X&X#X#X'.'.#X@X-X-X&X$X*X;X$X[.U.W.P. .j C ^ ! T z l v v v C v ",
"=.;.=._ ! ! ( ( ! ! P P v v P T c ! v v _ T a.sXiX:X_._.*X[.).~.).#XqX-X#X#X#X&X#X-X0X0X-X-X&X$X{.Z.B.2.! v v ^ v z l ! ! ! C v ",
"%.;.;.o.( ( ( ( ! P z c P c z T _ k v ) ! _ pXfX-X_.C.~._.).C.B.^.'.qXqX#X'.'.#X#X&X;X0X0X;X&X$X=XW.d.x.! v ! z h u h l l l l v ",
"=.;.;.o.( ) o._ ( ( P z v z z P q _ ! ^ ^ m.jXrX'.~.C.C./.C.C.C.~.'.&X0X&X#X#X$X&X;X;X;X;X0X0X;XXX`.x.g.` k P v u q u l v l l v ",
"=.r.;.o.( ) _ _ ) _ ( v P c P Y n n ! q ^ iXgX]._.C.m.C.C.M.m.C.)._.$X;X;X&X$X$X$X$X$X$X;XwXwXwX=X=X`.n.:.k z v s q u l v l l v ",
"=.;.;.o.( ( ! P ! ) T c P P P Y j M P.s.M.jXwX-X'.Z.m.m.M.x.m.V./.`.$X;X;X;X%X%X$X$X$X%X5XwXwX:X5X6X=XZ.B.! h l h q q k l l l v ",
"o.=.;.#.) ( P z P P z h v P v v ~ @.M.I..XuX;X;X$XC.m.m.M.m.x.V.C.`.$X%XXX.XXXXX3X=X=XwXrXrXwX>X6X6X=XZ./._ h v z u 0 h k j j l ",
"o.=.=.o._ ) ! v T P z z P v v Y v.6.{ @.L.eX$X$X].B.f.m.V.M.m.C.V.`.$XXX`.I.}.}.%X=X5XeXuXuXuXrXuXeX>X_./.=.a c h 0 9 q h h r j ",
"=.;.%.) ( ( ( ! ) ( P P P v ! -.v.6.i.4..XwX/.%X/.m.z.C.C.V.m.L.V.`.%XoX}.}.}.}.}.}.oX6XeXuXuXuXiXtXrX=X_.a.u h u 9 0 k l l j j ",
"r.r.#.! P T ( ( ( ! P P P z ( f.L.i.m 4.5X.X$X/.C.m.m././.V.V.P.L..X=X%XoX}.|.|.Q.Q.}.oX3X6X7XwXeX6X6XrX[.g.s s u 0 q v ! C l l ",
";.%.) T v v T ( ! ) z u ) P P ).C.u.u.wX;XC.M.f.+.+.-.x.(./.V.C.P.}.%X3X3X3X3X}.1X,X,X}.S.J.|.|.oXoXtXXX*X#.0 P h s h v ! ! v v ",
";.;.=._ ( ( ( T P ! P h Y x x m.u.m.wXwX`.f.y.+.Y ~ ` -.f.x.C.].L.I.}.oX3X5X3XoX3X1X2X|.G.J.<X,X|.6XeX*X[._ k s h u h v ! ! v v ",
"o.=.;.#.) ) T k z P P c P x x y.u.m.wX.XC.M.x.y.` Y q w q x ` y./.(.(.}.oX3X4X3X4X XQ.K.S.S.Y.Q.,X7X6X:XZ.T v s s u h v Y ! v v ",
"_ =.=._ ( ) T s c c ! P v P v o.(.(.5XP.M.M.C.M.M.-.x q a a a j 3.x.H.L.K.I.}.3X3XI.S.S.J.T.Y.Q.4X3X=X6Xg.c s v h a h v ! ! v v ",
"%.;.;.o.) o.( c T c T P v v x n V.6X6XXXz.z.P.(.L.m.y.-.-.+.Y n n s.P.I.K.H.K.oX}.J.c.F.Y.Y.Q.|.1XoX+X{._ v s T z h h v ! ! ! C ",
";.r.r.#._ #.o.T ) P P v v v h l H.eX=X(.2.z.(.(./.L.m.y.-.+.+.-.-.I.}.x.3.,.h.K.|.,X,XoX XY.J.Y.Y.E.}.d.k ^ k k h h k v n n C ! ",
";.:.;.%.#.o.) ( ) T P l v l j [ tXeXI.3.&.3.x.x.XX$X(.m.u.y.y.f.I.6X`.] e e e Z c.}.1X4X4XoXK.K.H.H.z.&.l T c s h h h v v v v C ",
";.-.-.=.=.o.) ( ! P P v n l n 9.yXE.x.&.s.3.u.P.`.XX.X].]./.N.f.=XuXXX' e $ # $ b S 1.F.,X1XK.S.H.h.' &._ z k u h a h x l v v C ",
"%.:.p.=.o.( ( ( ( P v l C l ~ =X9Xb.2.,.2.3.3.x.`.`.(.(.M.y.z..XyXoXJ.v.S m e m m e B e 4. XF.J.v.v.s...! v z s q u h x n n v v ",
"-.:.;.%.o._ ( T P P v x l n 9.9XOX0.,...{ ,.s.H.H.m.s.u.u.z.(.wXtXQ.oXI.v.<.S ,.6.S M B { F.I.J.J.tXeX9.r l T s h a h j l n n v ",
":.-.%.%.o.o.) P ( ! v v l [ P.9Xh.,.3.,.{ &.3.x.s.3.&.2.L.%X5X5XaX|.4X X,XF.1.w.j.h.} 3.l.J.1XF.w.{ Z ~ ! k c ! k h h j j v v v ",
"-.-.=.o.o.o.) ( ! P h l l <.+XOX0.<.h.2...,.3.k.z.x.3.{ 4.H.3XtXtX1X!. X8X1X XQ.Q.Y.F.,X4X,X,X>.F.h.,.&._ V v ! k k h j l n v v ",
"%.%.%.o.o.o.o.) ! P x v C b.tX+Xk.0.z.0.,.0.z.x.H.c.,.M m ,.v.H.Q.4XF.|.8X8XtX,X2X|.,X8X4X XF.N 1.w.3.' n C ! C k k j j n C n l ",
"_ %.=.+.o._ o.o.( P ! v n U.yX+Xx.s.x.x.z.h.3.2.2.2.{ ' } ' M B } Y.5.J.!.,X8X|.Y.J.|.Q.K.Y.S.5.Q.1.S  . .v j v l j j l n C l j ",
"[ %.=.%.o._ ) ) ! h v j Z OX9XW.b.s.x.b.x.s.&.] m ' { } Z B m 1.N j.5.5.G.!.|.!.j.j.G.S.S.J.S.S.4.>... .` C ! _ ! l j M n n l j ",
"+.%.-.%.o.o.) ! _ k ! ! d.yXyXW.U.3.2.2.2.2.,.2.' j b M ,.3.h.F.,X|.Y.>.S.T.j.D.j.S.S.F.J.c.4.} N ' ..../ v v C ^ n x j n n l r ",
"%.:.-._ o.o.( P z ( ! _ >XjXyX=XP.k.2.0.s.s.x.H.H.H.i.} m e m 5.Y. X<XF.5.j.S.w.l.F.c.0.,.[ M r M A ..*.[ C v ^ P l x v n l k j ",
"` -.%.( ( o.) ! o.a ! a.Z.iXhXhXOXb.2.2.s.z.x.m.V.I.H.c.R.5.m e N w.Q.K.w.e.l.w.3.l.h...C j j V C A  . ./ v v ^ v x z v v v l l ",
":.a.:.o.o.o.! c u Y B.C.XXaXaXaX{.k.&.2.x.V.V.V.H.(.R.3.c.I.J.j.N e.Q.|.F.e.w.h.,.0.2.~ j q r C A A ` _ ! v l ! v k h x v v v v ",
"_ _ ( ( o.) P P %.a.*Xf.=XhXdXtXE.w. .&.x.P.P.H.I.I.H.v.v.H.I.Y.w.l.Q. XQ.l.w.<...&.' n v l j l A C A / ! l k l z h a k l n n ! ",
";.=.=.t.t.$.=.g.-X=.a.y.g.rXtX+XOXn. .] <.b.H.H.}.c.v.K.}.K.j.1.l.e.l.Q.Q.l.<.S ] ~ l j v v k k v l C ~ ! l h h h u q h l v C ! ",
"o.#.=.t.;.$.A.qX@Xr.c ;.-.*X.X{.OXb.*.A ] <.x.b.P.,.,.K.oXQ.K.F.F.e.e.l.l.1.} Z ~ ~ l k k z z v l j v ! ! x h h h u q h l v n C ",
"p.p.=.E y & , L r.A.( ! -.P.].=XB.n.9.X./  .8.w.0.{ 3.E.OXQ.K.F.F.e.1.e.1...[ ~ [ ` v l l z z P h j l ! ! x h k k a u k v v v n ",
"t.t.$.L f y < , - P =.( %._ `.B.d.n.n.8./ A ]  .] Z ,.c.K.Q.E.k.1.} } q.w.0.&.~ [ ^ l l T c s s h r l C Y k k z x h h k v v v n ",
"H H H H H f 5 < , , 0 z ( +.-.:.7.B.d.*.9.*. .*.C *.<...<.w.0.<.S ..<.8.d.k.*.!  .^ P v z z z q 0 q k ! ) l u h h h k k l C ! C ",
"f d d d d y 4 < , , ; 9 u z ` %.7.n.d. .*. ./ X. .0.0.<.1.q.q.0.] 2.0.d.9.s. .^ ^ v v v c z z 0 0 q h ! ) l u a h h k k l V C V ",
"d y 4 4 4 4 4 3 < , - = + ; h ( a.n.9. .%. .A / ..8.q.q.0.0.0.k.*.n.B.n.%.%.^ ^ ) T T T v c h 0 0 0 s P ( v u s z z z k l V V v ",
"y 5 4 4 4 6 4 4 2 < , - = = 9 s %.:.%.^ | | ^ A X. .*.0.w.2.2.x.a.B.B.:.^ v ! _ _ ! ( ( P v z u 0 0 q v ( v u s z z l l v C V v ",
"y 5 5 5 6 6 6 4 2 2 < , : = = > s k h s V A A C / X. .<.8.&.,.d.7.7.a.v c 0 ( #.( T T T v v l h 0 9 0 v ) P u s h z z l v V V l ",
"i y 5 6 6 6 4 2 4 , - : : = + + o + + > 0 k V V A / A / [ [ ..2.%.o.#.0 y > c T | ( ( ! v x z u 0 0 0 v _ P s h u h z z l v v l ",
"d i 6 6 6 6 4 2 4 , * : : = & + o O O @ @ w r r t l M l C Z n l v E L s 1 1 g f o.) ) ) v x h q q 0 0 v o.! h h h z z k l v v l ",
"G d 6 6 6 6 4 2 2 , , < < , = : : + O .   @ w w % j l r j j %   > f y T 0 L g c L c E ( T v z u u 0 0 v o.( h h c v v v v v v l ",
"K G F F 6 6 2 < 3 3 3 < < < , : = + + + o O .     X q Y a @ X   p y W d : H d H d 5 y f f f L U q q 0 v =.( u c z v v v v C n l ",
"K G G F 8 6 4 2 3 < < < , , - = = + + = = + o O + . . w h w X   y 3 d < < W f 5 5 3 5 d G H R U s z q z _ P u P c P P P v Y n n ",
"K K K G F F i 6 3 2 < < , , , - = = : > > > - = > o   . 9 9 @   < < 5 = < L f = d d i i G R R L z P c c ( P s L P P ! P v v n n ",
"K J J K K G F d 5 4 3 3 < < < , , : : > < 1 < , = > > O O 9 w   & y 5 5 = G d : d G i 5 d I H d L T E E O.E L L c P T T v j l n ",
"K J R J K H K G i 6 5 5 5 5 3 4 < , , : , < < 1 : > f 9 . > 0   o f < H & f d , 5 d 3 - i H G y L E R R Q O.R H f L T ! v x l n ",
"K J R K G K K G d i 5 5 5 5 5 3 4 < < , , < < < y = y y o = 9 . o f & H : f f = d f 3 < d G i i W H G G I R R L f H P T P v v ! ",
"K I I G d F G F d i i i i 6 5 5 5 4 2 < 3 < < < y - - 3 3 , , = O 5 & f y 4 H , f H 5 < G d 3 d K d d F F K J J G H U P P l v ! ",
"G I J d 6 d F d d d d d d i i 5 4 4 4 4 5 4 3 < = d < : d 5 & , . < : d f & R 5 5 i - - d i 3 G D 6 F K G F G G J L U U P z P ! ",
"5 G I I K d i 6 F G H K F i i d 6 4 2 4 4 2 3 5 2 4 4 < < 5 < : < O < & f < R 3 5 L * - 5 R * G 6 D F 4 6 D 6 G K , G L $.h ! Y ",
"i i 6 i G K F 5 i d d d 6 6 i d d d 6 6 2 , < 5 3 4 3 3 5 5 5 , , : H 4 f , f d < L < < 3 I < J 6 D D 7 6 D D K 6 2 y f P P ) ( ",
"< 5 d d d d F F i d d i 6 6 6 F 2 5 i i 6 5 3 < 4 4 < < 5 d 5 4 : < R 5 y < 3 H - H d 3 < G 3 J 6 F 8 6 6 D F K 6 6 5 y p T ) ! ",
"* 5 G G d d d F d F F d 6 6 6 6 5 6 4 3 i F i , 3 3 4 4 5 y d y < : d : < d : L - f G 3 3 G 5 F D K 6 6 6 4 6 F 6 i 5 3 < P O.( ",
"= - < y d G d 3 6 i F F 6 6 4 2 J G 6 < , i d 5 < 3 5 5 5 5 y d 4 : 5 , 5 f & f < 5 G < 5 H d < F K 4 6 8 2 4 6 6 < 3 < y G O.O.",
"& - , < 5 d F d 6 6 d F F d 6 6 4 i d 6 3 3 5 i < < 4 5 5 4 5 d 5 < f d d y & < i < G < d G G - G J 2 d F * 2 4 6 * < < 3 y U P ",
"o , y y 3 5 d H i i F F F F 6 6 - , 5 i i 5 < 3 3 < < 5 y 5 5 5 y < d H G 5 , & f : H 3 d d I 5 d G < d F * 6 6 6 2 - < = p d G ",
"& = , 3 y d i 3 d i 6 6 6 6 6 2 I y - 3 i i 5 5 5 , : 3 y y 4 < d = , d H 5 y & f = I 5 i 6 R G i f : f K , 6 6 2 2 & 3 . f d H "
};
