/* XPM */
static char *c4921bcf16df4783e55882cbe29b3dff9W8h0Dq8KNnmVkHV[] = {
/* columns rows colors chars-per-pixel */
"64 64 209 2 ",
"   c #008312",
".  c #006618",
"X  c #005F1A",
"o  c #008213",
"O  c #008612",
"+  c #006219",
"@  c #005C1A",
"#  c #007017",
"$  c #007D13",
"%  c #006817",
"&  c #005E1A",
"*  c #006E17",
"=  c #007916",
"-  c #007D15",
";  c #007715",
":  c #007117",
">  c #007416",
",  c #006419",
"<  c #007E13",
"1  c #007515",
"2  c #007814",
"3  c #005B1A",
"4  c #007016",
"5  c #008D11",
"6  c #005D1A",
"7  c #007B15",
"8  c #007514",
"9  c #006619",
"0  c #007716",
"q  c #007A16",
"w  c #007F14",
"e  c #006D17",
"r  c #006A18",
"t  c #008313",
"y  c #006518",
"u  c #008113",
"i  c #006119",
"p  c #008512",
"a  c #007217",
"s  c #007E14",
"d  c #007516",
"f  c #007317",
"g  c #006418",
"h  c #008014",
"j  c #007116",
"k  c #006019",
"l  c #006C16",
"z  c #007F13",
"x  c #007615",
"c  c #007216",
"v  c #006B17",
"b  c #006118",
"n  c #006A17",
"m  c #006C17",
"M  c #006818",
"N  c #006319",
"B  c #007714",
"V  c #007415",
"C  c #007815",
"Z  c #007A15",
"A  c #006018",
"S  c #007616",
"D  c #005E19",
"F  c #006F16",
"G  c #006718",
"H  c #006F15",
"J  c #008013",
"K  c #007316",
"L  c #006318",
"P  c #006918",
"I  c #005C19",
"U  c #006C15",
"Y  c #006416",
"T  c #006C13",
"R  c #007015",
"E  c #006117",
"W  c #006614",
"Q  c #006E14",
"!  c #007B14",
"~  c #007014",
"^  c #006F17",
"/  c #005C18",
"(  c #006316",
")  c #006D13",
"_  c #006617",
"`  c #006917",
"'  c #006B18",
"]  c #005F19",
"[  c #005B19",
"{  c #006616",
"}  c #005D17",
"|  c #006315",
" . c #006218",
".. c #006217",
"X. c #006716",
"o. c #005A1A",
"O. c #006216",
"+. c #006215",
"@. c #006017",
"#. c #006519",
"$. c #007915",
"%. c #007C14",
"&. c #006415",
"*. c #006516",
"=. c #005D19",
"-. c #005E16",
";. c #006916",
":. c #00591A",
">. c #005A19",
",. c #006914",
"<. c #007214",
"1. c #007215",
"2. c #007213",
"3. c #006B15",
"4. c #006615",
"5. c #006F13",
"6. c #007614",
"7. c #006A14",
"8. c #006E16",
"9. c #006A13",
"0. c #007314",
"q. c #007113",
"w. c #008212",
"e. c #006514",
"r. c #007C15",
"t. c #006314",
"y. c #006813",
"u. c #006815",
"i. c #007D14",
"p. c #006D16",
"a. c #006515",
"s. c #006414",
"d. c #006B16",
"f. c #007914",
"g. c #00571A",
"h. c #005F16",
"j. c #005919",
"k. c #006517",
"l. c #006A15",
"z. c #007816",
"x. c #005B17",
"c. c #007115",
"v. c #006417",
"b. c #00581A",
"n. c #006717",
"m. c #007114",
"M. c #005D18",
"N. c #007C13",
"B. c #006B13",
"V. c #007315",
"C. c #006317",
"Z. c #007A14",
"A. c #006714",
"S. c #006D14",
"D. c #007A13",
"F. c #006814",
"G. c #005918",
"H. c #006913",
"J. c #006E15",
"K. c #005C17",
"L. c #006F14",
"P. c #007E15",
"I. c #005F17",
"U. c #008214",
"Y. c #005E18",
"T. c #006E13",
"R. c #007F12",
"E. c #006C14",
"W. c #007B13",
"Q. c #005F18",
"!. c #005A18",
"~. c #005E17",
"^. c #00601A",
"/. c #008413",
"(. c #005B18",
"). c #006015",
"_. c #006915",
"`. c #006D15",
"'. c #006A16",
"]. c #006116",
"[. c #006713",
"{. c #006016",
"}. c #008912",
"|. c #008812",
" X c #005819",
".X c #006816",
"XX c #006715",
"oX c #006C18",
"OX c #006613",
"+X c #006115",
"@X c #008513",
"#X c #007313",
"$X c #006B14",
"%X c #007112",
"&X c #007414",
"*X c #008412",
"=X c #006D18",
"-X c #008112",
";X c #007712",
":X c #007013",
">X c #007B16",
",X c #008114",
"<X c #008712",
"1X c #008613",
"2X c #007613",
"3X c #008012",
"4X c #007D12",
"5X c #007713",
"6X c white",
/* pixels */
"  . X o O + @ # $ % & * = - ; : > , < 1 & > 2 3 4 5 4 6 , 7 8 & 9 0 q w e 0 r * t + y u + i p o i 6 a $ y X : = s d f f g o 4 & ",
"h j k l z x i c v b n 6 m 0 M k i N B V + C Z , g B h . % > A n + + S # i + D F 2 G m w * k H J c b K % L P 6 * S . i k y B c k ",
"= : X I U d Y T % y u e & # k j ; N R H * 7 0 . I E ; n W Q k ; ! D r M N < y m ~ v C = ^ & / H K ( ) _ M o ` k ^ X V K , ~ F e ",
"' ] F i [ { D } |  .1 S i P n u 4 k ..X.C > i G m o.O.L [ +.@.l ! G #.G $.%., A &.j $.r ] 4 ] / *.=.-.+.g ; K i P e o e k ( ;.$.",
":.+ ; c N >.c F  ._ ,.<.1.] j 2.X.; 3.L c ] 3 F x v o.. x L _ 4.5.8 . . 6.7.8.1 ..* P :.g C 4 k I V m L *.9.0.R ] K q.X.C ;.g K ",
"4 i n s ^ N Z 8.c w.4.e.9.% 0.e.;.%.K & 3 8.G  .; r.i c ; % o <.t.y.u.F ) O.1 i.N 3 L F k p.w m . 7 l 1 J a.W 7.` 0.s.d.i.^ 6 :.",
"u G  .H 1.K d b r w f.=.g.D h.j.k.~ e & ] C x ] l.1.c d v k z.J ;.g.3 @.x.=.Q c.N 6 n w , v.H 1.K > ] e w 6.[ b.] -.j.n.m.' & D ",
"0 . & M.H N.7.A N : r.G i , 2 K Y B.e k W V.^ X =.C.$ <.( k r $.K i i F Z.% A.R N ( S.S , 6 M.1.D.F.k , K 7 y i . Z.j Y T v A A.",
"V c i i.<.} j.6 * V . N z Z.4 m b A.H + &.) x y * < ( G.3 N x m k > J c F y | ) P E H.V # + z J.K.j.& 4 K , . u C 4 v E y.F i a.",
"m.0 * S u ` 6 X + ! F + z.$.k 1 n | L.9 E 9.; c # w x & X X ^ ! i * P.M ` 1 E 9.8.] e.<.S * C J . & X g %.v , Z S k ; n.e.~ , E ",
"T x s M c u M & M z.d + k G e o # E Q P b | <.r.V G w 1 X i a Z n ] . . %.r.L F.8.y I.T ; i.. d J . & r = K i + . # U.e O.L.M k ",
"h.9.S.k M 7 ^ & ' = D.N.` j j # . ] Y.P c Y.e.T.X.k d $.+ + S C R.4 m c : n i M.L K y h.B.E.] ' r.m & e = W.Z.` c : ^ y D Q.v c ",
" .!.O.. k : M X ^ V.B.$ s i.c.I %.v o.: r.j >.~.n.k P # ^.. 1 S.q./.C z D p.Z.3 y = Z  .(.( y i : 9 ^.: <.B.z %.z p.D s G 3 K r.",
"d.N s C k k &  .S.9.).G * 8.{ + S ; + ^ $.6.i K h M ] ] ] _.T e.I.# ' `.] e 7 r 9 z.f.'.y w d ] k & C.S.H.h.` e F Y N z.d i a = ",
"_ N c S G Z.F ].[.{.L g #.F { & e }.e k.T.U i m 0 e * %. .W e.Y.y , P `.k i t i. .S.) k., K > G %.m O.[.h.g g y H Y 6 c |.` X.T.",
"..i 6 * e P S ]  XL J G g 1 *.6 m Z m ~.[.W k ] , > y > v j.[ x C 6 c Q ] + C d b | y...i D # ' m d =. X_ J g G 8 ( & ^ Z P I.y.",
"D $.m i r v > + 6 j M & ` J..Xn y ; , g (.(.v ! D v y d r 6 . j k i R XXp.N j * N A !.] ! M , P e c i & c . & v U ;.P G ; N g (.",
"i S # k + %.V j x 6 F 1 ]  Xv i.i Z.; $.f.. ' C , k e u n ! . i Z.. [ I s m n J K %.4 N z.e k N w j V V.@ c c Y. X4 Z i i.1 Z Z.",
"l B 0 , G C r d w r 7 $.k + # = v e u x h m 8 ; ^ k d a v w K # w P & r 0 > . 7 %.%.S 8.B S + r z.P C s r i.S X , a = P ^ o x o ",
"a.9.L.G d a i . * P * , X x $.. N i d i N _ y.) d.e z.G + ' oXm P ^.M s m y ] e * I M 4.9.H M S # i G * P * N ^.$.S . + N d ] , ",
"@.W +. .y 3 e o 8.X 6 ` c C ] V.< + i + 3 I | e.@.G D i i.Z.+ & i 4 ; v L o * ] N D o.@.OX+XL g @ 4 u v X 6 v c ; D ; ! i i i o.",
"F ..o.V F @ + 0 J . X Z @Xo 8.C s G e % 3 . l j.G 2 i & v u V.& m /./.f.* h K y 4 6 ] F Q.I ; m @ N $.z , i i.@Xu e 7 - y F y 3 ",
"@Xm ^.x @X* X : c. .i N f = ^ G . N %.; k Z Z.k ` o %.i G x X.i k ' z.0 G P k j z . n t M i 2 /.v ] K H  .i , > = e M y y < K X ",
"q d k E V $.v.L.M g i.L i a i y e N c.R P $.Z M D ;.i.n u.c.D ; j 3 * P & F + e m.r K Z K ] ..x S ( m.. M %.k N : ] G n #.m.F M ",
"> , . =.@.p.A | XXg 7 1 X e y z ; k ;.d.> Z ' , N [ 3.. I.F. .# w , G M j t , y l.F Z K N . @ ..l Q.s.4.y i.c k e . o c i _.l d ",
"@ k $.P @ [ G v.} b S.V n k * f.;.m C.v.$.. o.F > k j.b % I.Y.X.0.4 + g Z.R ` % ].j j @ + Z G 3 / M C.} E Q V M k j 2 .Xm .._ Z ",
"+ i F s * i %.V 4 2 A.B.#Xn.V 9.XXs V k + L k n.C ! k j i.n %.$Xy.%XU * m.W 1.u L + + + b j s v N s j K 6.W ) 2.n.1 H.;.h 4 k + ",
"o y k.; ^ M 0 g m t H K.(.b XXK.n.8 * 6 3 f.> ] c.x . a 8. .r.N.E !.Y.{ +.M.V.V N o.` J N n.; e r S  .^ t d.x.(. .4.(.n 8 ' 6 o.",
"= 9 D I.&XJ ~ A 9 0 h . 3 ] n.y C.T e ] Y V : X Y.XXu B X.k # s 1 3 6 v.n. .F.R N b U C N D h.B z Q ] M z.w N 3 k % g Y ) r ] Y ",
"x e ^.j U u.} D M 8.* , 1 j s C v.9.8.i W ~ K + M c.3.].M.+ p.# . e K ; J n W Q . O.B.1 r k 1.U XX} D ` ^ e y x j z 1 Y B.p.b A.",
"<.S y %.$ D 3 & P ! n.N s i.D n. .| L.#.O.B.C ' * *X'.:.6 i ; V D K t n k % I.B.e ] A.0.> y w Z.I 3 & m ! y 9 h Z =.% b e.~ N ( ",
"L.C i.* 7 ! N X N z.K k ' ^ n p c ( L.G D W 1 r.x : o m X X e r., , : M ! h v.H.F k {.L.$.%.e i.$.i X #.Z # k e * e O * &.~ #.=.",
"e.L.8  .P w ^ & ' = ! c =.y e z.M Q.X.r m {.B.&Xl ] $.! i + S Z Z.N i G 0 : k ( % ^  .e.m.V k e h m & e = %.F =.y ^ 0 . Q.X.v m ",
"[ {.+.k , S oX& =X; 5.-Xi.u 1 k j g b.e C . K.+.E k ^ d i , S m.;Xt 7 u g ` F :.+ S j I +XO.k 9 0 P X ^ x :X  %.o j k c i :.# $.",
"l =.V.1 X N ] i R ) W 4 K c .Xi i.K X a 7 ! D % ! y i i X n ~ H.u.0 * m.D : s N G = s v D x c X N X + R T W c : 1.{ N s # X > >X",
"n.. 7 S N j P ( H.e.(.i r 8.{ X * @XP ` 0.J.i > 7 P M j b F.y.h.[ P r `.k N w C + 1.m._ P r.K N 1.. Y 9.s.(.N r F Y X j /.. v 0.",
"v.& + > e K > Y.-.M.f.` k c { & e ,X* O.H.,.k X m > v Z y } } n C 6 m Q ] i s Z  .A.9.v.& , d v S j M.-.Y.! y + 1.Y & j ,Xv ( H.",
"Y.4 y N ' , S N :.j 1 k v 8 { i M S . =.h.I.G 4 6 * + : ^ :.L ! M i x E.L + > * ] } ).Q.c + . P . S k o.1 K ] * &X*.i ' d , =.{.",
"X $.4 i . $.K G ` i g M  .} l ! i ! e > % ] ' %.+ . m z . m g k n L E Y.i.P m f.m 4  .k 7 m + . %.F M M k y G ..M.4 C i i.v V n.",
"` C > + N Z ^ $.o y %.i.] @ ' Z M K t %.<Xm K 0 v 6 j C * /.j m /.n 3 i 0 c M h s /.Z.v C K i y 7 * %.w g w $.& @ * $.G S o i.|.",
"u.T.V . # S + r S ' d * ^.4 Z # . , $.. e ` ) m.* G z.r N f # # > , #.! > v i a j y * _.5.V y c > i oXd ' S oX^.K $.^ #.G $.g ^ ",
"O.y.F._ j g M V M + i ] , d P % 4 i r , @ A W H.*.* v + V.8.N N D + e K + 1.y y r =.=.( y.A.n.# N n V G + k k y x . v 8.i ' + @ ",
"L O.!.% i :.M h i.+ X ! O o g ! t G k k :.D Y K.A ` b.k x @Xm 6 m @X<X4 v 1Xx D L 3 3 C.].>.` D o.v o Z.k k s O z L w o g i ] :.",
"t G & %.*Xy 6 : f.. & m = - > ^ : g i.1 & x C @ e <XK & . Z R & , S 7 %.m > M F u N G u L k J u N & K 2 g X * q - c : ^ y J j & ",
"- > k .X! $. .c.`  .j 6 G d #.] + N V 1., C 7 G  .1.J M .XK D 4 . D f e X L ] 8.8 M e - j ] '.i.x  .V.. y 4 @ r > N k i #.&Xj N ",
"z.e k [ X.K C.,..Xy h j & ^ i ; $.+ J.J.# r.> , =.Y.V.% &.E.b d s k P M G t y n L.m Z z.' k [ '.j ..9._ G u e ] ^ i ! 1 N H 8.# ",
"y D 1 g >.E ] } {.b 1.d N . m J e N @.*.Z ^ =.v 4 3 ~.b =.{.Q.'.C r N . ! ; y A O.c 0 g ] 1 + >.E ] ~.{. .&XK + . F z v + E n.7 ",
"o.+ 1 ; M I ; K % l y.:X8  .c 5.4.%.R  .e D @ p.; c @ n %.n.8.XXT 2X` P &XF.4 %.C.r y o.g x x y D Z 4 ` '.H.q.0.+ V ) X.s p.L e ",
"C + % r.^ , $.'.4 *Xu.+X&._ ~ +.;.Z.j 6 :.V m A x Z + a > _ u 6.).| Y p.,.@.1 $.N o.y ; i v i.v . $.% K w.a.+X&.n.L.+Xd.Z e 6 b.",
"s G b _.&XZ V A P r.s i b.D ~.>.v.T.e X b x > ] *.J.f.; ;.k S h F g.3 Q./ D $Xc.N ] '.i., b l.6.$.1.] oX- %.D b.D ~.[ { L.r & b ",
"0 G & b U 6.a.Q.N * z.. M M z $.*.B.e k A.0.# ^.k k.6.E.E k M S ^ y . 1 u n A.L., ( ) S #.& ..H &X&.] g # 0 y M ` u x Y T v A A.",
"0.> + z 6.!.b.6 * 2 g N u i.G . A e.H N ( T ; G *   (  X3 N f.e & d /.8.. L ].T v A y.0.c + o <.G.:.& j x + . t Z.. . A A.H + &.",
"~ z.d K h 4 X X i $.c i > S L < F | L.9 Q.F.x 0 c Z i.N X X m i.+ ' Z M j %.C.9.8.] | m.z.> > u e X X + %.* + S > y J v e.~ , Q.",
"9.V ! y e u v & r = C G @ N e s e @.S.r y +.~ $.c + i.$.^.+ d $.4 D i y 7 z.+ XXp.P I.9.1 7 L : u M & oX= ; g 6 N # P.' E J.P g ",
"x.A.F.] G Z * & ' z.2X3Xc Z.K P M ] [ r > Y.+X9.C.k K z.+ + S x 4X$.> f.e M g >.i > % K.y.u.] r Z oX& * z.5Xz j Z.c P G D [ m d ",
"n.j.X.m X m #.k 4 m.H.f.7 $.J.=.w F @ a r.; [ I.8.+ . ' X M V B.Q h d D.=.4 s D . = s . >.;.n k e N i c ~ H.! $.Z.'.k J v 6 > r.",
";.. w C k g i C.B.y.} L =X8.*.i c 7 , * ; 0.i x w M i L k _.B.| [ e ' `.k P 7 ^ , S 6.% M h d k g k v.B.[.K.y oXF ( + > Z N # ; ",
"_ i m S r ! c @.e.~.v . + F { 6 e |.* Y T $Xk . > # ^ s  .t.+.b e i P `.k k o i. .7.T k.i * d P i.* {.e.} l y N R Y 6 c <Xn { T ",
"@.y D r m y 0 i g.` w y G B *.& ' z.r / e.&.+ g k c N c * b.=.Z.K ] d Q ] i S a ] ).OXE . =.m r M S ] g.e s + n 6.( & e 0 G / W ",
"& ! F i P j K + k m N k n.u.'.j N C . v M.[ m i.] r M $.G k . ` k i 3.Y V y ^ j . g >.] i.v N M K 4 + i m + k % { `.F g $.g n / ",
", S : i i ! K x %.D 1 Z.] b.r r.N C i.! o n e 0 . & * s m u n g u M >.=.7 * P u C u ; y 0 * k N s 4 $.f.D f.; =.b.* Z N ! ! %.t ",
"U &X; #.r z.G a r.v $.d ^.G > 0 v P s 4 $.v #X1 ^ + S ^ M 7 K # 7 M i 4 0 K , ; C > K `.&XS N e 0 . > 7 v 7 K X P d 0 P m w 4 7 ",
"Y H.S.% S * N % r G P k X x > g y i a + ] g [.B.;.# > #.. ` P P , X P %.M . k ' * 3 g a.H.E.` S oXN ` r G M k k $.j g g + K k k ",
"Y.e.h.A k :.* O 1.& 6 F $.Z.I 2 t N @ k o.I +.t.Y.N :.i J J + 6 g ; %.` y <X4 @ ] D :.I.e.-.b D :.c O 8.& & j $.C @ i.J i 6 k :."
};
