/* XPM */
static char *_3bc8dc114004b83874a0068b9484b32EYFc2SO6drx7HEvC[] = {
/* columns rows colors chars-per-pixel */
"64 64 184 2 ",
"   c #16283C",
".  c #1E2E3E",
"X  c #1F313D",
"o  c #3A3227",
"O  c #3B392A",
"+  c #3D3B24",
"@  c #433818",
"#  c #413B25",
"$  c #403729",
"%  c #453C2D",
"&  c #493C2E",
"*  c #513F29",
"=  c #453D32",
"-  c #493E33",
";  c #4A4027",
":  c #47402E",
">  c #4C422F",
",  c #564527",
"<  c #57422F",
"1  c #59472F",
"2  c #554B28",
"3  c #5F522F",
"4  c #464132",
"5  c #4B4235",
"6  c #464438",
"7  c #4C4339",
"8  c #4F4C3B",
"9  c #5E4E37",
"0  c #5A4F3B",
"q  c #5D533D",
"w  c #5D5A3D",
"e  c #6B5734",
"r  c #6E5A37",
"t  c #62553D",
"y  c #62583F",
"u  c #745B3E",
"i  c #61633E",
"p  c #313C42",
"a  c #4D4D43",
"s  c #5E5441",
"d  c #625742",
"f  c #625A42",
"g  c #635B49",
"h  c #656146",
"j  c #766646",
"k  c #77654A",
"l  c #7A654A",
"z  c #7B6C4C",
"x  c #7D6B43",
"c  c #77724E",
"v  c #7C714F",
"b  c #7D6F52",
"n  c #7E6F5A",
"m  c #7B7253",
"M  c #7D7A57",
"N  c #7B7658",
"B  c #806D4F",
"V  c #8C7F5C",
"C  c #D2AB5C",
"Z  c #D39F63",
"A  c #D6A266",
"S  c #DAA766",
"D  c #D3A962",
"F  c #DBAC66",
"G  c #D6A269",
"H  c #DAA669",
"J  c #D6AA6D",
"K  c #DDAC6B",
"L  c #DDB16D",
"P  c #DAA770",
"I  c #D7AB70",
"U  c #DDAD72",
"Y  c #DDB073",
"T  c #DFB877",
"R  c #DDB57B",
"E  c #E4A963",
"W  c #E1AF6C",
"Q  c #E3B266",
"!  c #E3B26D",
"~  c #E9B56B",
"^  c #E6BD6B",
"/  c #ECBA6D",
"(  c #F4BE6E",
")  c #E2AF74",
"_  c #E4B473",
"`  c #E9B674",
"'  c #E6B975",
"]  c #EBBA76",
"[  c #E4B47A",
"{  c #EBB778",
"}  c #E5BB7B",
"|  c #ECBD7A",
" . c #F1B672",
".. c #F3BC75",
"X. c #F1BE7B",
"o. c #F8BE7E",
"O. c #EFC068",
"+. c #F2C16E",
"@. c #F9C76E",
"#. c #F8C96D",
"$. c #E6C177",
"%. c #ECC375",
"&. c #E6C47C",
"*. c #EDC27C",
"=. c #EEC97B",
"-. c #F3C374",
";. c #FAC476",
":. c #F4CB74",
">. c #FACA75",
",. c #F3C37C",
"<. c #F9C67B",
"1. c #F4CB7D",
"2. c #FBCC7D",
"3. c #FFD370",
"4. c #F5D17E",
"5. c #FAD17C",
"6. c #E6BE80",
"7. c #EDBD81",
"8. c #F1BD83",
"9. c #EEC482",
"0. c #EECA83",
"q. c #EFC789",
"w. c #F3C582",
"e. c #F9C683",
"r. c #F5CA84",
"t. c #FACC84",
"y. c #F3C489",
"u. c #F9C68A",
"i. c #F5CC8A",
"p. c #FBCD8A",
"a. c #EFD78F",
"s. c #F6D284",
"d. c #FBD285",
"f. c #FBD987",
"g. c #F6D48B",
"h. c #FBD38B",
"j. c #F6D98D",
"k. c #FCDA8D",
"l. c #F3CF92",
"z. c #FCCE92",
"x. c #F6D492",
"c. c #FCD592",
"v. c #F6DA93",
"b. c #FED995",
"n. c #FDDA96",
"m. c #FFDA96",
"M. c #FFDB97",
"N. c #FFDB96",
"B. c #FED896",
"V. c #FCDB93",
"C. c #FFD799",
"Z. c #FED699",
"A. c #F7DF9F",
"S. c #F6DF9C",
"D. c #FBDD99",
"F. c #FDDE99",
"G. c #FFDC9E",
"H. c #FCDC9A",
"J. c #FEE294",
"K. c #F5E399",
"L. c #F5E39D",
"P. c #FDE09A",
"I. c #FEE19B",
"U. c #FDE198",
"Y. c #FFE39D",
"T. c #FDE39C",
"R. c #FBE899",
"E. c #FFE99B",
"W. c #FFEB9F",
"Q. c #FFD5A1",
"!. c #F7DDA0",
"~. c #F7DFA1",
"^. c #FFDFA5",
"/. c #FBDFA0",
"(. c #F6E1A0",
"). c #F7E3A4",
"_. c #F9E1A3",
"`. c #F9E0A2",
"'. c #FFE6A2",
"]. c #F8E3A4",
"[. c #FDE1A2",
"{. c #FFEBA0",
"}. c #FFEEA2",
"|. c #FFF3A4",
/* pixels */
"p i w h w g t h d y d y f f y y f f f f f f f f g g g g g g g g f d f d y y y t 0 q q q y q q d s w y q s d s q w 2 q 9 d 3 e X ",
"V E.'.T.v.G.n.n.C.n.n.n.n.C.n.n.n.n.n.n.F.n.n.F.U.U.U.U.I.I.I.I.k.k.k.k.f.h.h.d.<.<.<.<.t.2.2.t.f.d.f.2.<.t.-.-.8...9.8.p.p...< ",
"j {.n.F.J.c.k.j.h.h.h.h.h.h.h.h.j.j.c.c.c.c.c.c.V.V.V.V.D.F.D.D.f.f.f.d.2.2.2.<.| | | *.,.,.,.r.h.p.p.,.*.9.| ] [ ` ' ,.w.-.e.- ",
"M |.a.K.R.x.j.j.j.j.j.j.c.c.c.j.k.k.c.c.c.c.c.c.~.~.S.S.S._.(.(.k.c.c.j.g.g.h.i.$.%.%.%.1.1.1.1.s.s.s.1.*.w.*.%.} ! L -.w.%.e.5 ",
"v W.F.U.k.c.k.g.k.j.j.k.k.k.k.k.c.c.c.c.V.V.V.V.n.n.n.n.n.b.b.b.f.h.h.h.t.e.t.e.7.7.7.w.u.i.e.i.p.p.p.w.7.8.7.8.X.-.%.-.2.2.e.% ",
"n '.^.^.B.Q.C.B.c.c.c.c.B.B.B.c._._._._.].].).].c.k.k.h.h.p.h.h.p.p.p.t.w.w.w.,.=.=.%.1.d.d.s.d.s.s.s.=.$.*.$.%.6.1.0.*.r.s.i.a ",
"N R.x.D.V.c.k.j.v.j.j.v.c.c.c.c.C.C.C.C.F.F.F.I.g.f.f.d.s.s.5.5.s.s.s.1.%.=.=.=.-.-.-.1.d.f.d.d.2.2.2.-.] { | -.,.-.=.t.h.t.1.: ",
"z }.n.F.F.c.c.b.j.j.j.j.j.k.k.k.T.T.L.L.L.L.L.L.B.B.c.c.h.p.p.p.p.p.p.i.w.w.y.y.,.*.*.r.h.h.d.p.d.d.d.,.{ | | ,.9.-.&.e.e.r.p.5 ",
"m R.C.V.D.c.c.c.v.D.D.D.D.V.C.F.D.D.D.F.C.n.n.n.k.h.h.h.d.d.d.s.r.p.w.w.,.,.| w.r.1.r.t.t.p.p.r.e.t.t.1.-.] -.,.1.1.1.2.p.d.2.5 ",
"m R.Z.V.v.j.c.j.S.A.T.[.[.G.G.G.D.D.V.V.c.x.g.g.k.h.h.f.d.h.d.d.*.w.*.w.*.,.X.t.d.p.p.t.r.r.r.,.,.,.1.-.-.-.1.w.1.1.r.2.p.d.2.7 ",
"m R.C.k.V.j.c.j.~.~._._.[.[.[.[.V.V.V.c.c.g.g.g.h.h.h.j.d.h.f.d.*.w.*.,.| | | w.h.d.d.p.r.r.r.1.,.,.,.-.-.-.<.<.1.2.r.2.p.d.2.5 ",
"N R.C.k.V.j.c.j./././.[.[.[.[.[.n.n.n.c.c.k.j.j.h.h.h.h.h.h.h.p.w.w.,.,.,.*.| ,.h.d.d.p.1.r.r.r.w.w.1.1.1.-.-.<.1.<.r.2.d.d.2.5 ",
"m J.C.k.V.c.c.c.B.x.x.x.B.V.C.V.c.c.c.c.j.g.h.h.h.h.h.h.i.r.t.r.*.*.| *.t.t.r.t.p.t.t.1.*.*.*.$.,.-.,.1.t.t.2.2.2.2.1.2.p.d.2.5 ",
"m J.B.j.V.c.c.c.i.i.9.0.i.i.g.g.j.c.j.g.h.h.d.d.h.p.h.p.r.w.e.w.| | | *.h.h.p.p.r.1.1.,.] ] | | | | | w.p.t.t.t.2.2.t.2.p.d.2.5 ",
"v J.c.k.V.c.c.b.g.i.i.i.i.g.g.g.j.j.j.g.h.d.d.p.h.p.h.p.e.w.w.w.X.| | -.h.h.d.p.,.,.r.,.] | | | *.| | w.p.t.2.2.2.2.t.2.p.d.2.5 ",
"v J.c.k.V.c.B.b.i.i.q.i.i.g.g.g.j.j.h.h.h.h.d.d.h.h.h.p.e.w.e.w.| | | -.h.p.p.t.1.r.r.,.| ] | | *.| | w.p.t.2.2.2.2.1.2.p.d.2.5 ",
"c F.c.v.h.i.i.i.r.w.w.r.i.g.g.g.j.j.k.k.i.r.i.r.,.,.| | w.w.w.y.r.t.p.r.t.d.d.r.-.-.-.-.] | | ,.,.w.w.e.t.t.r.h.c.d.g.r.9.w.w.5 ",
"c F.c.v.s.y.r.r.r.w.w.w.i.g.g.i.j.j.k.h.r.w.w.w.' ] ' ' | | | *.d.h.d.p.p.p.r.1.-.-.-.-.-.X.-.,.<.w.w.w.t.<.r.h.c.d.g.1.*.=.*.5 ",
"v F.c.v.g.i.r.r.w.*.*.9.i.g.g.i.c.b.n.c.r.w.y.e.] ] ] ] 9.w.9.w.d.h.h.p.p.p.t.r.] ] ] ] ] X.X.,.e.w.w.e.t.2.r.h.c.f.j.1.*.=.*.4 ",
"m F.c.x.i.i.r.y.9.9.w.r.i.g.g.h.c.h.c.h.r.e.r.w.] ] ] ' | | | | p.d.d.p.t.t.t.r.%.-.-.*.*.-.-.-.e.w.w.w.t.t.r.h.B.h.j.w.*.*.9.7 ",
"z c.i.g.r.y.9.w.i.i.g.i.r.r.r.i.y.w.w.w.w.w.w.,.e.t.r.r.p.p.i.p.d.h.d.t.1.,.1.1.1.t.t.1.1.w.w.,...| | ,.2.2.1.i.x.h.x.9.} } } - ",
"l g.e.i.w.8.9.9.i.g.c.g.i.r.r.r.| } } | | w.w.| t.p.t.p.h.h.d.h.d.d.d.r.,.-.-.,.t.p.p.t.t.t.w.,.` ` ] X.<.<.,.r.l.i.l.6.R T [ = ",
"z c.e.i.w.y.9.w.i.g.k.g.i.i.i.p.7.} } | | w.w.,.r.p.t.p.h.d.p.d.p.d.p.r.,.-.-.1.t.p.p.t.t.t.w.,.` ` ] X.<.<.w.i.l.i.l.6.R T [ = ",
"z c.e.i.w.y.9.w.i.g.k.g.i.r.r.r.7.| | 7.| w.w.w.r.p.t.p.d.d.t.t.d.d.p.r.,.*.-.1.t.p.p.t.t.t.w.-.] ] ] ..<.<.w.i.l.i.l.7.R T } 4 ",
"l p.8.&.r.p.i.p.i.i.p.p.e.w.w.w.w.w.w.w.e.r.i.r.p.d.d.h.d.d.d.h.p.p.p.p.p.p.t.p.t.p.d.,.] ] ] X.w.1.-.-.t.1.t.] _ ~ _ { { ` | = ",
"l p.7.$.r.h.g.h.i.i.p.p.y.w.w.w.w.w.w.w.r.p.p.p.d.d.h.h.h.h.h.h.d.d.d.d.p.p.p.p.t.p.d.-.] ] ] X.e.w.,.1.t.e.e.` _ ~ _ { { ` X.5 ",
"k r.7.$.y.h.g.p.p.i.p.p.y.w.w.,.9.9.*.w.r.r.p.t.h.h.h.h.h.h.h.h.p.d.d.d.d.d.d.p.h.h.h.1.] ` ` X.e.1.1.1.p.t.t.] K W ! ` ] / | - ",
"k i.9.&.i.h.g.g.p.i.i.p.e.y.w.w.w.w.w.r.r.r.t.t.h.h.h.h.h.f.h.h.p.h.h.p.p.p.p.t.p.t.p.,.] { ] X.<.,.1.1.e.,.e.{ _ ~ ! ] ] ] | - ",
"b b.z.g.c.c.c.b.p.r.r.i.r.e.i.r.h.h.h.h.h.h.h.h.h.h.h.h.k.c.c.k.p.h.h.p.p.p.p.r.] ] *.| X.,.X.w.p.t.t.X.] ` ] _ ] / ] -.t.2.t.5 ",
"m J.C.k.n.b.c.b.p.r.r.i.r.i.i.i.f.h.h.h.h.h.h.d.h.h.h.j.c.b.b.c.p.h.h.p.p.d.p.r.' _ ' | X.w.,.w.d.t.p.| _ ! _ _ ] / ` <.d.5.t.5 ",
"m V.C.j.c.c.g.k.p.r.w.r.r.i.p.i.h.h.f.f.d.d.p.p.p.p.h.g.c.c.c.c.p.h.p.p.p.d.p.1.] ' | | X.,.,.w.t.t.p.| _ _ ` ` ` / _ ;.2.5.t.5 ",
"m J.C.f.n.b.x.c.p.e.w.r.r.r.p.i.h.f.f.h.h.h.h.h.h.g.h.j.b.b.c.c.p.p.p.t.p.p.p.,.] ' | | | X.X.w.2.1.t.] _ _ _ ` ] / ` ;.2.>.t.5 ",
"N T.D.L.v.C.D.D.f.s.i.d.d.i.d.d.p.k.g.g.c.b.c.c.b.c.V.c.c.h.k.g.| | ] { ] ` ` ] w.w.w.*._ _ ' K G G G K { _ ! e.2.2.t.>.w.2.1.7 ",
"m I.D.L.c.B.v.V.f.i.i.d.d.d.d.d.h.j.g.g.c.b.c.c.b.c.v.c.j.h.g.i.| ] ] ] ' _ ` ] r.w.w.*._ _ ' K A G A K ] _ ` 1.2.2.t.>.w.2.1.7 ",
"m T.D.K.F.C.c.F.f.s.d.h.d.d.d.d.p.j.g.g.c.b.c.c.c.v.c.c.c.c.c.g.] ] ] ] _ _ ` { r.w.w.*._ _ _ K Z A A K ] ` ` 1.2.1.t.2.w.2.1.7 ",
"m T.V.D.b.B.c.B.h.i.i.p.i.i.i.r.p.g.g.g.c.c.c.c.c.v.c.c.g.p.g.i.| | | | ] ] { | w.*.,.| _ _ ` ! S S S W ] ` ` -.2.1.t.2.r.2.1.5 ",
"v F.x.v.f.z.g.g.r.w.w.w.9.*.9.*.h.j.j.g.b.F.n.F.c.c.c.j.0.*.*.*.*.*.*.X.,.,.,.-.` ' ] ] ' ] { ] w.,.,.w.t.t.2.t.2.1.2.2.i.2.1.5 ",
"m U.c.v.f.p.g.p.r.w.w.w.*.*.,.*.h.k.k.j.n.F.F.F.c.c.V.j.*.| | $.,.,.,.w.e.e.w.-._ _ _ _ ` ] ] { ,.,.,.1.1.1.<.<.2.1.2.5.s.5.1.5 ",
"m U.c.v.h.z.g.p.r.w.w.w.w.w.w.,.h.k.j.j.b.F.n.n.j.c.V.j.w.*.,.w.,.,.,.,.,.w.,.X.' _ _ ' ] ` ` { -.X.-.<.1.2.2.2.2.1.2.5.s.d.4.5 ",
"z F.g.g.d.u.i.p.e.w.w.w.w.w.w.,.h.j.j.h.c.c.c.c.j.j.j.g.*.| *.*.| ,.X.X.X.,.-.| ' ' _ ` { { { ,.t.1.1.t.2.t.t.2.2.1.2.5.s.d.4.5 ",
"j t.7.&.w.w.9.w.9.| | | ,.w.w.w.t.p.h.p.r.w.w.w.w.w.w.,.*.*.*.*.| ' | _ _ _ _ ' _ ' _ | h.s.r.k.V.V.V.h.h.h.d.t.p.4.i.d.f.k.g.7 ",
"j p.8.&.w.,.9.,.w.*.*.*.w.w.w.,.p.p.h.p.r.r.t.r.w.w.w.,.*.| | | ] ' | ' ' ' _ [ ` ` _ | h.i.r.f.V.V.k.f.h.h.d.t.p.1.i.d.f.k.g.7 ",
"j t.7.&.w.,.9.,.*.| | | *.*.,.*.p.d.h.h.r.r.r.w.w.w.w.w.*.*.*.*.| ' | ' _ _ U _ _ _ _ $.i.s.0.g.V.V.k.f.d.f.f.d.t.1.s.d.g.f.g.7 ",
"l d.e.1.r.1.r.1.w.w.w.w.r.r.r.r.p.t.p.t.,.,.,.,.| | ] | | *.*.| | ' ] ' _ _ _ ' | ' ' *.f.f.g.j.V.V.k.f.f.d.d.d.h.4.h.d.g.f.g.5 ",
"z k.i.s.h.p.h.d.h.h.h.p.p.t.r.t.w.1.w.w.| | | | _ W K _ ] | | ] ! L _ L K K K ' r.w.w.h.V.V.V.v.j.j.j.f.d.d.d.d.k.f.h.d.s.d.s.5 ",
"z k.p.g.h.d.f.d.h.h.h.h.p.t.t.i.t.e.e.w.| ] ] ] W K K _ ] ,.*.| ' _ _ _ ! ! ! ' r.,.w.f.V.J.F.v.j.j.j.f.d.d.s.d.k.f.k.s.r.2.i.5 ",
"z k.u.s.p.p.h.d.h.h.h.h.p.p.p.p.t.e.t.w.X.{ | | _ ! ! _ ] | *.| _ L _ L K K S ! 1.=.*.g.b.F.v.v.j.j.j.f.d.s.s.d.k.f.h.t.r.2.i.5 ",
"z k.p.g.p.p.h.d.i.i.p.i.w.w.,.,.,.X.,.w.| | ,.,.! ! ! _ ' ] ' ' | } *.*.*.*.| w.d.r.r.j.V.F.v.j.j.j.j.f.d.s.s.d.h.g.h.t.1.2.i.5 ",
"z h.p.s.h.d.k.h.1.1.r.r.] _ ` ) _ { ' ` e.i.w.i.' ' _ ) ) U U [ p.r.r.h.k.k.k.k.j.j.f.f.h.h.d.g.d.s.s.d.f.f.f.f.5.2.4.>.t.2.-.7 ",
"B k.p.s.h.p.d.d.r.1.p.t.| ` { ` ] | ] ] e.t.w.w.W ) U U _ ) Y [ r.w.w.p.h.k.k.f.f.g.g.f.h.h.h.f.d.d.d.d.d.d.g.s.d.t.s.>.t.2.-.7 ",
"z h.p.d.h.h.k.h.p.r.t.w.] _ _ ! _ _ _ | w.i.p.t._ _ _ Y Y U I Y w.w.1.i.h.h.f.d.f.j.j.f.h.d.d.d.d.d.s.d.d.f.d.d.d.d.d.>.t.2.-.7 ",
"z k.u.s.t.,.w.,.,.-.,.,.,.-.,.-.,.*.,.,.] ` ] _ | | | *.y.i.9.i.c.j.j.k.k.V.k.k.f.f.g.h.p.p.p.d.s.s.s.d.d.d.d.s.2.2.1.+.] -./ 5 ",
"l h.i.r.,.` ' ` ] ] ` ] 1.t.t.r.r.r.p.1.! S K K w.w.w.p.n.U.U.F.F.v.v.n.F.F.b.j.s.s.s.d.t.t.t.t.s.d.d.d.d.d.t.1.-.<.1./ ! ~ ~ = ",
"l h.u.s.w.] ] X.| | ] | w.p.t.r.1.1.p.w.! S W ! w.w.*.r.c.F.V.c.v.F.v.v.v.n.b.c.h.f.d.d.t.t.2.s.s.d.d.s.s.d.t.2.;.<.1./ ` ~ ~ 7 ",
"B h.u.r.8.{ ' ` ] { ` ] w.p.p.p.p.t.t.1._ F F K ,.,.1.r.j.V.V.V.V.F.V.V.b.V.n.b.d.d.d.t.t.2.2.s.s.d.d.s.d.d.d.2.-.<.,./ ` ~ ~ - ",
"z t.8.1.w.X.| X.! _ W K ' ] _ ' ! ! _ ] ] ] ] | h.k.h.g.j.j.g.g.s.d.d.s.s.d.d.p.1.1.1.1.2.2.t.s.k.k.h.s.t.t.2.<.<.<.1.( ] / / - ",
"j p.7.,.e.y.8.y.[ U J P U U U U K H S F | w.w.9.j.c.b.j.j.g.h.j.s.5.s.2.1.t.t.-...-.-.-.p.r.r.g.V.V.V.s.2.2.2.2.1.>.r...` ..X.- ",
"x ;.] +.-.-.,.,._ K S S K K K K F F F F %.=.=.=.d.f.f.d.s.s.s.s.2.1.2.2.2.2.2.<.+.-.+.-.2.1.:.s.k.k.k.s.2.2.<.2.2.@.1.( ( O.Q ; ",
"z p.i.=.| 0.y.9.U J J J U U U J H K K F | *.9.9.c.c.c.j.j.g.g.f.5.5.5.5.1.1.2.1.-.-.%.,.r.r.r.f.k.k.k.s.1.2.2.1.,.:.w./ ^ ^ ! 8 ",
"u  .[ Q ` ] { ] { ] ` ] { { { { ] | | | g.h.c.c.f.k.h.h.t.t.t.2.t.t.t.e.o.X.o.X.~ ~ ~ ~ -.-.] 1.h.h.h.r.,.e.<.<.2.>.2.;.2.>.X.5 ",
"k { I D } } _ | | | | | *.*.*.*.,.*.*.&.c.V.v.v.f.j.f.d.s.1.1.1.2.2.2.>.+.+.+./ ! ! ! _ | | ' *.4.4.4.:.-.-.-.:.2.#.%.2.2.-.t.7 ",
"r ~ _ C ] $._ ' %.%.%.%.%.%.%.%.-.-.-.%.h.k.k.j.d.d.d.s.4.5.1.2.s.t.t.2.-.] ] / Q Q Q ! ] %.] =.s.s.s.1.-.<.-.1.:.3.:.>.:.:.t.> ",
"u E U D ) } } ' ] | | | | | | | $.&.&.&.j.j.j.j.p.p.d.p.r.t.t.t.2.2.2.<.-.] %./ W ! W _ | ] ' *.r.r.r.,.-.-.-.1.<.>.w.-.t.>...1 ",
". * o + = O = = % = = = = = = = & - & $ 5 5 4 4 4 4 4 4 % = = = % % % % % % % % % & $ % : % % : = = 4 = & & % : 4 # 6 - 5 @ ,   "
};
