/* XPM */
static char *_be2c7d3689344fe8f95527c2e90f261hWNL1fzSlncHNAwS[] = {
/* columns rows colors chars-per-pixel */
"64 64 140 2 ",
"   c None",
".  c #000000",
"X  c #0C0700",
"o  c #0E0900",
"O  c #170303",
"+  c #1F0202",
"@  c #160D00",
"#  c #180E00",
"$  c #1C1C00",
"%  c #141414",
"&  c #171718",
"*  c #1D1D1D",
"=  c #260701",
"-  c #272201",
";  c #282201",
":  c #323233",
">  c #393839",
",  c #4D2B00",
"<  c #532D00",
"1  c #563000",
"2  c #5C3400",
"3  c #613600",
"4  c #633900",
"5  c #644301",
"6  c #6F4900",
"7  c #704A00",
"8  c #A41616",
"9  c #BF1919",
"0  c #CA0101",
"q  c #D51919",
"w  c #DE1B1B",
"e  c #FD1C1C",
"r  c #DA302F",
"t  c #D63132",
"y  c #DA3232",
"u  c #FD2424",
"i  c #FC3535",
"p  c #836100",
"a  c #FD5656",
"s  c #FC6C6D",
"d  c #FC7171",
"f  c #BFBC01",
"g  c #CFC901",
"h  c #D1C900",
"j  c #DBCE01",
"k  c #DCD000",
"l  c #E6DF01",
"z  c #E8DF01",
"x  c #E7E000",
"c  c #E8E101",
"v  c #828281",
"b  c #958282",
"n  c #939493",
"m  c #989897",
"M  c #979898",
"N  c #9C9D9D",
"B  c #AE9897",
"V  c #AF9798",
"C  c #AE9898",
"Z  c #ACADAC",
"A  c #B5B5B6",
"S  c gray74",
"D  c #CB9E9F",
"F  c #C5ACAD",
"G  c #CBB5B5",
"H  c #D6BDBC",
"J  c #E3B7B6",
"K  c #C0BFC1",
"L  c #F6BFC1",
"P  c #C3C5C5",
"I  c #CBCACA",
"U  c #CFCFD0",
"Y  c #D6D6D6",
"T  c #D7D7D8",
"R  c #D8D7D8",
"E  c #DADADA",
"W  c #E5CDCD",
"Q  c #F4C6C7",
"!  c #F6C7C8",
"~  c #E5D0CF",
"^  c #E5CFD0",
"/  c #F4D6D6",
"(  c #F6D8D7",
")  c #F5D7D9",
"_  c #F5D9DA",
"`  c #F5DADB",
"'  c #F5D8D8",
"]  c #F5DADC",
"[  c #F6DBDC",
"{  c #F6DEDF",
"}  c #F3DADB",
"|  c #F5DFE0",
" . c #E3E2E1",
".. c #E0E2E2",
"X. c #E3E2E2",
"o. c #E5E2E1",
"O. c #E9EAEA",
"+. c #EAEBEA",
"@. c #E8ECEB",
"#. c #E8EBEC",
"$. c #EBEBEC",
"%. c #F3E1E2",
"&. c #F6E1E3",
"*. c #F0F0F1",
"=. c #F2F1F1",
"-. c #F0F1F2",
";. c #F3F1F2",
":. c #F1F3F3",
">. c #F1F2F3",
",. c #F3F3F3",
"<. c #F4F1F1",
"1. c #F5F1F2",
"2. c #F6F0F3",
"3. c #F2F4F4",
"4. c #F3F4F4",
"5. c #F2F5F4",
"6. c #F3F5F4",
"7. c #F3F4F5",
"8. c #F2F5F5",
"9. c #F3F5F5",
"0. c #F2F4F5",
"q. c #F2F5F6",
"w. c #F3F6F6",
"e. c #F2F6F7",
"r. c #F5F4F4",
"t. c #F5F4F5",
"y. c #F4F5F5",
"u. c #F4F5F5",
"i. c #F5F4F6",
"p. c #F4F5F6",
"a. c #F7F4F7",
"s. c #F5F6F6",
"d. c #F4F7F6",
"f. c #F5F7F6",
"g. c #F4F7F7",
"h. c #F7F6F6",
"j. c #F6F6F7",
"k. c #F4F6F8",
"l. c #F5F6F8",
"z. c #F7F6F8",
/* pixels */
"                                                                                                                                ",
"                                                                                                                                ",
"                                                                                                                                ",
"                                                                                                                                ",
"                                                                                                                                ",
"                                                                                                                                ",
"                                                                                                                                ",
"                                                                                                                                ",
"                                                                                                                                ",
"                                                                                                                                ",
"                                                                                                                                ",
"                                                                                                                                ",
"                            . . . . . . . . . . . . . . . . . . . . . . . . . .                                                 ",
"                            . . * * * * + + * * * * + + * * * * + + * * * * . .                                                 ",
"                            . * S Y Y H w w H Y Y H w w H Y Y H w w H Y Y S * .                                                 ",
"                            . * T f.f.' e e ( f.f.( e e ' f.f.( e e ( f.f.Y * .                                                 ",
"                            . * R f.7.( e e / 7.7.( e e ) 7.7.( e e ( 7.f.Y * .                                                 ",
"                            . * S E *.' i i Q %.*.' i i L } *.' i i L ' 2.E > *                                                 ",
"                                * > E 2.] ! s d &.2.] L i i ' 2.] L i i ' *.E K * .                                             ",
"                                . * Y f.k.| a a { f.k.) e e ( f.k.) e e ( f.k.E * .                                             ",
"                                . * Y f.7.( u u ( 7.7.( e e ( 7.7.( e e ( 7.f.Y * .                                             ",
"                                . * Y f.7.( e e ( 7.7.( e e / 7.7.( e e ( 7.f.Y * .                                             ",
"                                . * Y f.7.( e e ( 7.7.( e e ( 7.7.( e e ( 7.f.Y * .                                             ",
"                                . * Y f.7.( e e ( 7.7.( e e ( 7.7.( e e ( 7.f.Y * .                                             ",
"                                . * Y f.7.( e e ( 7.7.( e e ( 7.7.( e e ( 7.7.Y * .                     . .                     ",
"                                . * Y *.*./ e e / *.*./ e e / *.*./ e e / *.*.Y * .                     + +                     ",
"                                . * I O.@.W w w W O.#.W w w W O.@.W w w W O.$.I * .                 . + 0 0 + . . .             ",
"                                & : I o.~ J t t W X.^ J t t W X.~ J t t W X.U A * .                 . + 0 0 = X X X             ",
"                            . * N A I G y y D G I G y r D G I G y y D G I A : *                         + = < 1 1 , X .         ",
"                            . * Z P P F q q F P P F q q F P P F q q F P P Z & .                         . X , 1 3 1 o .         ",
"                            . & m Z Z B 9 9 C Z Z C 9 9 C Z Z V 9 9 C Z Z M & .                             X @ 1 1 o .         ",
"                            . % v n n b 8 8 b n n b 8 8 b n n b 8 8 b n n v % .                             . X 1 1 X .         ",
"                            . . % & & % O O % & & % O O % & & % O O % & & % . .                             . X 1 1 X .         ",
"                            . . . . . . . . . . . . X X . . . . . . . . . . . .                             X @ 1 1 X .         ",
"                                                . X , , X .                                         . . . X , 1 3 1 X .         ",
"                                                . X 1 1 X .                                         X X X @ 1 3 3 1 o .         ",
"        . . . .                                 . X 1 1 X .                             . . . . . X , 1 1 1 3 3 3 1 o .         ",
"        . . X X                                 . X 1 1 X .                             X X X o X @ 1 3 3 3 3 3 1 , X .         ",
"        . X , , X . . . . . . .                 . X 1 1 X .                 . . . . . X , 1 1 1 1 1 2 3 3 3 3 1 @ X             ",
"        . o 1 1 @ X X X X X X X                 . X , , X .                 X X X X X @ 1 3 3 3 3 3 3 3 3 3 3 1 X .             ",
"        . X 1 3 1 1 1 1 1 1 1 , X . . . . . . . . . X X . . . . . . . . . X , 1 1 1 1 1 3 3 3 3 3 3 3 3 3 3 3 1 X .             ",
"        . X , 1 3 3 3 3 3 3 3 2 - $ o X o o o o o o $ $ o X X X X X X o $ ; 2 3 3 3 3 3 3 4 7 7 4 3 3 3 3 3 3 1 X .             ",
"            X @ 1 3 3 3 3 3 2 6 h h 5 < 1 1 1 1 < 5 h h 5 < 1 1 1 1 < 5 h h 6 2 3 3 3 3 2 6 j j 7 2 3 3 3 3 3 1 X .             ",
"            . X 1 3 3 3 3 4 7 p c z p 7 4 3 3 4 7 p l c p 7 4 3 3 4 7 p c x p 7 4 3 3 4 6 p x c p 7 4 3 3 3 1 , X .             ",
"            . X 1 4 3 3 2 7 j c f f x j 7 2 2 7 k x f f x j 7 2 3 7 j c f f x k 7 2 3 7 k x f f x j 7 2 3 1 @ X                 ",
"            . X , 1 3 3 2 7 j l f f l j 7 2 2 7 j l f f l j 7 2 3 7 j l f f l j 7 2 3 7 j l f f l j 7 2 3 1 X .                 ",
"                X # 1 3 3 4 7 p c c p 7 4 3 3 4 7 p l x p 7 4 3 3 4 7 p c l p 7 4 3 3 4 7 p x x p 7 4 3 4 1 o .                 ",
"                . X , 1 1 1 < 5 h h 5 < 1 1 1 1 < 5 g h 5 < < 1 1 < < 5 h h 5 < 1 1 1 1 < 5 g h 5 < 1 1 1 , o .                 ",
"                . . X X X X X o $ $ o X X X X X X o $ $ o X X X X X X o $ $ o X X X X X X o $ $ o X X X X X                     ",
"                . . . . . . . . . . . . . . . . . . . . . . . . . . . . . . . . . . . . . . . . . . . . . .                     ",
"                                                                                                                                ",
"                                                                                                                                ",
"                                                                                                                                ",
"                                                                                                                                ",
"                                                                                                                                ",
"                                                                                                                                ",
"                                                                                                                                ",
"                                                                                                                                ",
"                                                                                                                                ",
"                                                                                                                                ",
"                                                                                                                                ",
"                                                                                                                                ",
"                                                                                                                                ",
"                                                                                                                                "
};
